SplineFontDB: 3.0
FontName: Techna-Regular
FullName: Techna Regular
FamilyName: Techna
Weight: Regular
Copyright: Copyright (c) 2019, Carl Enlund
UComments: "2019-5-11: Created with FontForge (http://fontforge.org)"
Version: 001.000
ItalicAngle: 0
UnderlinePosition: -100
UnderlineWidth: 50
Ascent: 800
Descent: 200
InvalidEm: 0
LayerCount: 2
Layer: 0 0 "Back" 1
Layer: 1 0 "Fore" 0
XUID: [1021 637 837473831 1446149]
FSType: 0
OS2Version: 0
OS2_WeightWidthSlopeOnly: 0
OS2_UseTypoMetrics: 1
CreationTime: 1557605594
ModificationTime: 1558016621
PfmFamily: 17
TTFWeight: 400
TTFWidth: 5
LineGap: 90
VLineGap: 0
OS2TypoAscent: 0
OS2TypoAOffset: 1
OS2TypoDescent: 0
OS2TypoDOffset: 1
OS2TypoLinegap: 0
OS2WinAscent: 0
OS2WinAOffset: 1
OS2WinDescent: 0
OS2WinDOffset: 1
HheadAscent: 0
HheadAOffset: 1
HheadDescent: 0
HheadDOffset: 1
OS2Vendor: 'PfEd'
MarkAttachClasses: 1
DEI: 91125
LangName: 1033
Encoding: ISO8859-1
UnicodeInterp: none
NameList: AGL For New Fonts
DisplaySize: -72
AntiAlias: 1
FitToEm: 0
WinInfo: 0 25 9
BeginPrivate: 0
EndPrivate
Grid
-976 -155 m 4
 2024 -155 l 1028
-1021.83337402 1300 m 0
 -1021.83337402 -700 l 1024
-1000 503 m 0
 2000 503 l 1024
-1000 404 m 0
 2000 404 l 1024
-1000 413.916992188 m 0
 2000 413.916992188 l 1024
-1000 688 m 0
 2000 688 l 1024
EndSplineSet
BeginChars: 256 43

StartChar: D
Encoding: 68 68 0
Width: 706
VWidth: 0
Flags: HW
LayerCount: 2
Fore
SplineSet
332 121 m 1
 332 0 l 1
 147 0 l 1
 147 121 l 1
 332 121 l 1
342 688 m 1
 336 567 l 1
 147 567 l 1
 147 688 l 1
 342 688 l 1
65 0 m 1
 65 688 l 1
 199 688 l 1
 199 0 l 1
 65 0 l 1
342 688 m 1
 564.498591549 688 681 540.865497076 681 348 c 3
 681 150.017595308 561.06197183 0 332 0 c 1
 332 121 l 1
 477.946902655 121 549 221.337837838 549 346 c 3
 549 468.445945946 479.256637169 567 336 567 c 1
 342 688 l 1
EndSplineSet
EndChar

StartChar: E
Encoding: 69 69 1
Width: 566
VWidth: 0
Flags: HW
LayerCount: 2
Fore
SplineSet
130 412.916992188 m 1
 458 412.916992188 l 1
 427 293 l 1
 129 292.916992188 l 1
 130 412.916992188 l 1
130 124 m 1
 531 124 l 1
 564 0 l 1
 130 0 l 1
 130 124 l 1
130 688 m 1
 528 688 l 1
 496 564 l 1
 130 564 l 1
 130 688 l 1
65 0 m 1
 65 688 l 1
 199 688 l 1
 199 0 l 1
 65 0 l 1
EndSplineSet
EndChar

StartChar: C
Encoding: 67 67 2
Width: 630
VWidth: 0
Flags: HW
LayerCount: 2
Fore
SplineSet
572 547 m 5
 549.413333334 552.5 495 569 418 569 c 7
 308.343161753 569 158 520.896720852 158 345 c 3
 158 179.712446352 295.00731445 113 426 113 c 3
 487.186813187 113 560.802197802 128.141151951 600 146 c 1
 600 18 l 1
 566.663366337 4.03703703704 500.549661282 -11 418 -11 c 3
 242.425974026 -11 25 72.3073515917 25 339 c 3
 25 629.174890775 268.901000976 697 437 697 c 7
 514.827935512 697 577.318181818 683.105263158 605 675 c 5
 572 547 l 5
EndSplineSet
EndChar

StartChar: G
Encoding: 71 71 3
Width: 714
VWidth: 0
Flags: HW
LayerCount: 2
Fore
SplineSet
603 541 m 1
 576.880434783 548 514 568 425 568 c 3
 307.322222222 568 158 523 158 345 c 3
 158 179.712446352 287.128571429 113 434 113 c 7
 499.063583815 113 560.242774566 132.023809524 602 160 c 5
 651 33 l 5
 609.47639485 11.4680851064 523 -11 426 -11 c 7
 235.880597015 -11 25 72.7606837607 25 339 c 3
 25 630 268.224637681 697 436 697 c 3
 534.058252427 697 602.990291262 680 636 670 c 1
 603 541 l 1
523 33 m 5
 523 354 l 1
 651 354 l 1
 651 33 l 5
 523 33 l 5
363 404 m 1
 651 404 l 1
 651 285 l 1
 332 285 l 1
 363 404 l 1
EndSplineSet
EndChar

StartChar: T
Encoding: 84 84 4
Width: 584
VWidth: 0
Flags: HW
LayerCount: 2
Fore
SplineSet
576 688 m 1
 576 564 l 1
 1 564 l 1
 33 688 l 1
 576 688 l 1
232 0 m 1
 232 639 l 1
 366 639 l 1
 366 0 l 1
 232 0 l 1
EndSplineSet
EndChar

StartChar: H
Encoding: 72 72 5
Width: 671
VWidth: 0
Flags: HW
LayerCount: 2
Fore
SplineSet
126 413.916992188 m 1
 654 413.916992188 l 1
 631 291 l 5
 126 290.916992188 l 1
 126 413.916992188 l 1
441 0 m 1
 441 688 l 1
 575 688 l 1
 575 0 l 1
 441 0 l 1
65 0 m 1
 65 688 l 1
 199 688 l 1
 199 0 l 1
 65 0 l 1
EndSplineSet
EndChar

StartChar: N
Encoding: 78 78 6
Width: 651
VWidth: 0
Flags: HW
LayerCount: 2
Fore
SplineSet
105 652 m 1
 191 688 l 1
 219 688 l 5
 557 36 l 1
 472 0 l 1
 444 0 l 1
 105 652 l 1
452 0 m 1
 452 688 l 1
 586 688 l 1
 586 0 l 1
 452 0 l 1
65 0 m 1
 65 688 l 1
 199 688 l 1
 199 0 l 1
 65 0 l 1
EndSplineSet
EndChar

StartChar: A
Encoding: 65 65 7
Width: 642
VWidth: 0
Flags: HW
LayerCount: 2
Back
SplineSet
847 403.916992188 m 1
 1338 403.916992188 l 1
 1308 285.916992188 l 1
 847 285.916992188 l 1
 847 403.916992188 l 1
1111 0 m 1
 1111 688 l 1
 1245 688 l 1
 1245 0 l 1
 1111 0 l 1
847 688 m 1
 1166 688 l 1
 1166 566 l 1
 847 566 l 1
 847 688 l 1
766 0 m 1
 766 688 l 1
 900 688 l 1
 900 0 l 1
 766 0 l 1
EndSplineSet
Fore
SplineSet
464 0 m 5
 302 688 l 5
 437 688 l 5
 600 0 l 5
 464 0 l 5
191 688 m 5
 428 688 l 5
 428 566 l 5
 189 566 l 5
 191 688 l 5
15 0 m 5
 178 688 l 5
 311 688 l 5
 149 0 l 5
 15 0 l 5
129 298.916992188 m 5
 627 298.916992188 l 5
 605 180.916992188 l 5
 129 180.916992188 l 5
 129 298.916992188 l 5
EndSplineSet
EndChar

StartChar: B
Encoding: 66 66 8
Width: 600
VWidth: 0
Flags: HW
LayerCount: 2
Fore
SplineSet
337 118 m 5
 349 0 l 1
 147 0 l 1
 147 118 l 1
 337 118 l 5
386 406 m 1
 386 292 l 5
 147 292 l 1
 147 406 l 1
 386 406 l 1
337 384 m 1
 478.238938053 384 565 304.771556528 565 192 c 3
 565 85 487.79653702 0 349 0 c 1
 337 118 l 5
 398.876106195 118 429 157.243243243 429 206 c 7
 429 253.648648649 398.876106195 292 337 292 c 5
 337 384 l 1
342 688 m 1
 328 568 l 1
 147 568 l 1
 147 688 l 1
 342 688 l 1
65 0 m 1
 65 688 l 1
 199 688 l 1
 199 0 l 1
 65 0 l 1
342 688 m 1
 476.019417476 688 545 605.661050157 545 511 c 3
 545 404.27887753 465.634259259 331 328 331 c 1
 328 406 l 1
 383.823008849 406 411 442.567567568 411 488 c 3
 411 532.324324324 383.823008849 568 328 568 c 1
 342 688 l 1
EndSplineSet
EndChar

StartChar: F
Encoding: 70 70 9
Width: 535
VWidth: 0
InSpiro: 1
Flags: HW
LayerCount: 2
Fore
SplineSet
130 406.917 m 1
 456 406.917 l 1
 424 286 l 1
 130 286 l 1
 130 406.917 l 1
  Spiro
    130 406.917 v
    456 406.917 v
    424 286 v
    130 286 v
    0 0 z
  EndSpiro
130 688 m 1
 530 688 l 1
 497 564 l 1
 130 564 l 1
 130 688 l 1
  Spiro
    130 688 v
    530 688 v
    497 564 v
    130 564 v
    0 0 z
  EndSpiro
65 0 m 1
 65 688 l 1
 199 688 l 1
 199 0 l 1
 65 0 l 1
  Spiro
    65 0 v
    65 688 v
    199 688 v
    199 0 v
    0 0 z
  EndSpiro
EndSplineSet
EndChar

StartChar: I
Encoding: 73 73 10
Width: 274
VWidth: 0
Flags: HW
LayerCount: 2
Fore
SplineSet
70 0 m 1
 70 688 l 1
 204 688 l 1
 204 0 l 1
 70 0 l 1
EndSplineSet
EndChar

StartChar: L
Encoding: 76 76 11
Width: 536
VWidth: 0
Flags: HW
LayerCount: 2
Fore
SplineSet
65 0 m 1
 65 688 l 1
 199 688 l 1
 199 0 l 1
 65 0 l 1
130 0 m 1
 130 124 l 1
 531 124 l 5
 500 0 l 5
 130 0 l 1
EndSplineSet
EndChar

StartChar: M
Encoding: 77 77 12
Width: 761
VWidth: 0
Flags: HW
LayerCount: 2
Fore
SplineSet
562 0 m 1
 562 688 l 1
 696 688 l 1
 696 0 l 1
 562 0 l 1
332 270 m 1
 332 332 l 1
 538 688 l 1
 655 688 l 1
 435 270 l 1
 332 270 l 1
328 270 m 1
 104 688 l 5
 225 688 l 1
 433 334 l 1
 433 270 l 1
 328 270 l 1
65 0 m 1
 65 688 l 1
 199 688 l 1
 199 0 l 1
 65 0 l 1
EndSplineSet
EndChar

StartChar: O
Encoding: 79 79 13
Width: 798
VWidth: 0
Flags: HW
LayerCount: 2
Fore
SplineSet
399 706 m 3
 643.691489362 706 773 538.621687238 773 346 c 3
 773 151.155638656 643.691489362 -18 399 -18 c 3
 154.308510638 -18 25 151.155638656 25 346 c 3
 25 538.621687238 154.308510638 706 399 706 c 3
399 586 m 3
 240.303346278 586 157 470.033163265 157 346 c 7
 157 219.899617347 240.303346278 102 399 102 c 3
 557.696653722 102 641 219.899617347 641 346 c 3
 641 470.033163265 557.696653722 586 399 586 c 3
EndSplineSet
EndChar

StartChar: P
Encoding: 80 80 14
Width: 571
VWidth: 0
Flags: HW
LayerCount: 2
Fore
SplineSet
327 395 m 1
 330 275 l 1
 147 275 l 1
 147 395 l 1
 327 395 l 1
336 688 m 1
 327 566 l 1
 147 566 l 1
 147 688 l 1
 336 688 l 1
65 0 m 1
 65 688 l 1
 199 688 l 1
 199 0 l 1
 65 0 l 1
336 688 m 1
 478.136485579 688 551 599.719298246 551 484 c 3
 551 365.096774194 476.073852373 275 330 275 c 1
 327 395 l 1
 387.957172511 395 416 432.908249165 416 482 c 3
 416 528.54054054 387.957172511 566 327 566 c 1
 336 688 l 1
EndSplineSet
EndChar

StartChar: Q
Encoding: 81 81 15
Width: 788
VWidth: 0
Flags: HW
LayerCount: 2
Fore
SplineSet
662 -61 m 1
 355 227 l 1
 438 313 l 1
 745 25 l 1
 662 -61 l 1
EndSplineSet
Refer: 13 79 N 1 0 0 1 0 0 2
EndChar

StartChar: R
Encoding: 82 82 16
Width: 586
VWidth: 0
Flags: HW
LayerCount: 2
Fore
SplineSet
327 395 m 1
 330 280 l 1
 147 280 l 1
 147 395 l 1
 327 395 l 1
338 688 m 1
 327 566 l 1
 147 566 l 1
 147 688 l 1
 338 688 l 1
65 0 m 1
 65 688 l 1
 199 688 l 1
 199 0 l 1
 65 0 l 1
338 688 m 1
 476.785849694 688 551 599.883040936 551 491 c 3
 551 370.096774194 479.073852373 280 330 280 c 1
 327 395 l 1
 387.957172511 395 416 432.908249165 416 482 c 3
 416 528.54054054 387.957172511 566 327 566 c 1
 338 688 l 1
409 0 m 1
 257 328 l 1
 404 328 l 1
 556 0 l 1
 409 0 l 1
EndSplineSet
EndChar

StartChar: U
Encoding: 85 85 17
Width: 630
VWidth: 0
Flags: HW
LayerCount: 2
Fore
SplineSet
197 236 m 2
 197 153.77122237 236.173727101 107 315 107 c 3
 393.826272899 107 433 153.77122237 433 236 c 2
 433 688 l 1
 567 688 l 1
 567 223 l 2
 567 73.6992349585 479.871984374 -17 315 -17 c 3
 150.128015626 -17 63 73.6992349585 63 223 c 2
 63 688 l 1
 197 688 l 1
 197 236 l 2
EndSplineSet
EndChar

StartChar: V
Encoding: 86 86 18
Width: 591
VWidth: 0
Flags: HW
LayerCount: 2
Fore
SplineSet
259 0 m 5
 438 688 l 5
 576 688 l 5
 388 0 l 5
 259 0 l 5
203 0 m 5
 15 688 l 5
 157 688 l 5
 336 0 l 5
 203 0 l 5
EndSplineSet
EndChar

StartChar: Z
Encoding: 90 90 19
Width: 560
VWidth: 0
Flags: HW
LayerCount: 2
Fore
SplineSet
26 20 m 1
 108 121 l 1
 555 121 l 1
 522 0 l 1
 26 0 l 1
 26 20 l 1
530 668 m 1
 447 567 l 1
 22 567 l 1
 55 688 l 1
 530 688 l 1
 530 668 l 1
26 20 m 1
 376 654 l 1
 530 668 l 1
 180 36 l 1
 26 20 l 1
EndSplineSet
EndChar

StartChar: W
Encoding: 87 87 21
Width: 865
VWidth: 0
Flags: HW
LayerCount: 2
Fore
SplineSet
581 0 m 1
 700 688 l 1
 835 688 l 1
 707 0 l 1
 581 0 l 1
547 0 m 5
 383 688 l 5
 501 688 l 1
 661 0 l 1
 547 0 l 5
208 0 m 1
 368 688 l 1
 480 688 l 5
 316 0 l 5
 208 0 l 1
158 0 m 1
 30 688 l 1
 169 688 l 1
 288 0 l 1
 158 0 l 1
EndSplineSet
EndChar

StartChar: Y
Encoding: 89 89 22
Width: 575
VWidth: 0
Flags: HW
LayerCount: 2
Fore
SplineSet
221 0 m 1
 221 329 l 1
 355 329 l 1
 355 0 l 1
 221 0 l 1
224 255 m 1
 431 688 l 1
 575 688 l 1
 351 245 l 1
 224 255 l 1
223 244 m 1
 0 688 l 1
 148 688 l 1
 355 258 l 1
 223 244 l 1
EndSplineSet
EndChar

StartChar: X
Encoding: 88 88 23
Width: 598
VWidth: 0
Flags: HW
LayerCount: 2
Back
SplineSet
150 0 m 5
 1 0 l 5
 432 688 l 5
 580 688 l 5
 150 0 l 5
440 0 m 5
 18 688 l 5
 172 688 l 5
 593 0 l 5
 440 0 l 5
EndSplineSet
Fore
SplineSet
155 0 m 1
 6 0 l 1
 210.015625 355.854492188 l 1
 23 688 l 1
 177 688 l 1
 306.1953125 449.426757812 l 1
 437 688 l 1
 585 688 l 1
 394.020507812 357.194335938 l 1
 598 0 l 1
 445 0 l 1
 297.840820312 263.62109375 l 1
 155 0 l 1
EndSplineSet
EndChar

StartChar: S
Encoding: 83 83 24
Width: 509
VWidth: 0
Flags: HW
LayerCount: 2
Fore
SplineSet
465 667 m 1
 434 542 l 1
 381.265625 568.27027027 327.497070312 578 282 578 c 3
 213 578 170 555 170 502 c 3
 170 461.482421875 191.313524151 446.421990007 260 418 c 2
 318 394 l 2
 428.170874644 348.412051872 487 305 487 195 c 3
 487 61 394 -11 243 -11 c 3
 164.838867188 -11 93.0147783251 8.49869791667 44 39 c 1
 44 174 l 1
 102 132.285965878 182.6953125 107 252 107 c 3
 317 107 354 131.29296875 354 190 c 3
 354 230.033203125 323.325025906 246.487879696 251 277 c 2
 187 304 l 2
 105.627836788 338.328881355 37 375.6328125 37 499 c 3
 37 622.00390625 132 699 291 699 c 3
 358.953125 699 426.905273438 685.424242424 465 667 c 1
EndSplineSet
EndChar

StartChar: K
Encoding: 75 75 25
Width: 603
VWidth: 0
Flags: HW
LayerCount: 2
Fore
SplineSet
191 413.916992188 m 1
 347 413.916992188 l 1
 606 0 l 1
 451 0 l 1
 191 413.916992188 l 1
126 413.916992188 m 1
 281 413.916992188 l 1
 281 291 l 1
 126 290.916992188 l 1
 126 413.916992188 l 1
197 291 m 1
 441 688 l 1
 590 688 l 1
 345 291 l 1
 197 291 l 1
65 0 m 1
 65 688 l 1
 199 688 l 1
 199 0 l 1
 65 0 l 1
EndSplineSet
EndChar

StartChar: J
Encoding: 74 74 26
Width: 486
VWidth: 0
Flags: HW
LayerCount: 2
Fore
SplineSet
359 688 m 1
 359 564 l 1
 44 564 l 1
 76 688 l 1
 170.333007812 688 264.666992188 688 359 688 c 1
40 147 m 5
 81.4951171875 126.076612903 118.338867188 115 167 115 c 3
 245.080078125 115 289 149 289 228 c 2
 289 688 l 1
 423 688 l 1
 423 217 l 2
 423 65 339.424804688 -9 181 -9 c 3
 130.143554688 -9 69.1728515625 1.73046875 40 22 c 1
 40 147 l 5
EndSplineSet
EndChar

StartChar: Odieresis
Encoding: 214 214 27
Width: 788
VWidth: 0
Flags: HW
LayerCount: 2
Fore
SplineSet
449 652 m 1
 449 820 l 1
 593 820 l 1
 593 652 l 1
 449 652 l 1
205 652 m 1
 205 820 l 1
 349 820 l 1
 349 652 l 1
 205 652 l 1
EndSplineSet
Refer: 13 79 N 1 0 0 1 0 0 2
EndChar

StartChar: o
Encoding: 111 111 28
Width: 582
VWidth: 0
Flags: HW
LayerCount: 2
Fore
SplineSet
291 518 m 7
 461.931640625 518 560 402 560 252 c 7
 560 101 461.931640625 -15 291 -15 c 7
 120.068359375 -15 22 101 22 252 c 7
 22 402 120.068359375 518 291 518 c 7
291 404 m 7
 199.461914062 404 151 336.106445312 151 252 c 7
 151 167.900390625 199.461914062 99 291 99 c 7
 382.538085938 99 431 167.900390625 431 252 c 7
 431 336.106445312 382.538085938 404 291 404 c 7
EndSplineSet
EndChar

StartChar: i
Encoding: 105 105 29
Width: 239
VWidth: 0
Flags: HW
LayerCount: 2
Fore
SplineSet
55 567 m 5
 55 688 l 1
 184 688 l 1
 184 567 l 5
 55 567 l 5
55 0 m 1
 55 503 l 1
 184 503 l 1
 184 0 l 1
 55 0 l 1
EndSplineSet
EndChar

StartChar: hyphen
Encoding: 45 45 30
Width: 399
VWidth: 0
Flags: HW
LayerCount: 2
Fore
SplineSet
364 363 m 5
 364 239 l 5
 23 239 l 5
 55 363 l 5
 364 363 l 5
EndSplineSet
EndChar

StartChar: l
Encoding: 108 108 31
Width: 239
VWidth: 0
Flags: HW
LayerCount: 2
Fore
SplineSet
55 0 m 1
 55 688 l 5
 184 688 l 5
 184 0 l 1
 55 0 l 1
EndSplineSet
EndChar

StartChar: n
Encoding: 110 110 32
Width: 546
VWidth: 0
Flags: HW
LayerCount: 2
Fore
SplineSet
55 0 m 1
 55 503 l 1
 180 503 l 1
 181 360 l 1
 184 360 l 1
 184 0 l 1
 55 0 l 1
167 358 m 1
 167 450.981445312 224.5859375 512 330 512 c 3
 435.52734375 512 497 442.806640625 497 338 c 2
 497 0 l 1
 368 0 l 1
 368 298 l 6
 368 355.796381579 339.674804688 394 281 394 c 3
 219.6328125 394 184 356.756835938 184 288 c 1
 167 358 l 1
EndSplineSet
EndChar

StartChar: h
Encoding: 104 104 33
Width: 546
VWidth: 0
Flags: HW
LayerCount: 2
Fore
SplineSet
55 0 m 1
 55 688 l 1
 184 688 l 1
 184 0 l 1
 55 0 l 1
167 358 m 1
 167 450.981445312 224.5859375 512 330 512 c 3
 435.52734375 512 497 442.806640625 497 338 c 2
 497 0 l 1
 368 0 l 1
 368 298 l 6
 368 355.796381579 339.674804688 394 281 394 c 3
 219.6328125 394 184 356.756835938 184 288 c 1
 167 358 l 1
EndSplineSet
EndChar

StartChar: a
Encoding: 97 97 34
Width: 494
VWidth: 0
Flags: HW
LayerCount: 2
Fore
SplineSet
316 313 m 1
 316 361.956054688 279 394 200 394 c 3
 134 394 79.6484375 367.830078125 54 353 c 1
 87 481 l 1
 113.823242188 498.17578125 165 512 231 512 c 3
 371 512 445 442 445 337 c 1
 316 313 l 1
445 337 m 1
 445 0 l 1
 320 0 l 1
 319 143 l 1
 316 143 l 1
 316 313 l 1
 445 337 l 1
154 155 m 3
 154 125 179 100 224 100 c 3
 283.633789062 100 316 133.859375 316 197 c 1
 333 145 l 1
 333 52.3671875 275 -8 182 -8 c 3
 81.341796875 -8 25 60 25 142 c 3
 25 277.930664062 146.785146336 295.913224738 260 304 c 2
 330 309 l 1
 330 222 l 1
 249.72265625 216.181640625 l 2
 186.031497695 211.565418511 154 198 154 155 c 3
EndSplineSet
EndChar

StartChar: u
Encoding: 117 117 35
Width: 542
VWidth: 0
Flags: HW
LayerCount: 2
Fore
SplineSet
487 503 m 1
 487 0 l 1
 362 0 l 1
 361 143 l 1
 358 143 l 1
 358 503 l 1
 487 503 l 1
375 145 m 1
 375 52.0185546875 318.12086468 -9 214 -9 c 3
 109.736392837 -9 49 60.5910223599 49 166 c 2
 49 503 l 1
 178 503 l 1
 178 205 l 6
 178 147.203618421 205.674418605 109 263 109 c 3
 323.10172526 109 358 146.243164062 358 215 c 1
 375 145 l 1
EndSplineSet
EndChar

StartChar: b
Encoding: 98 98 36
Width: 604
VWidth: 0
Flags: HW
LayerCount: 2
Fore
SplineSet
184 143 m 5
 184 202 l 5
 183 202 l 5
 183 302 l 5
 184 302 l 5
 184 688 l 5
 55 688 l 5
 55 0 l 5
 180 0 l 5
 181 143 l 5
 184 143 l 5
338 515 m 7
 215.54296875 515 144 420.333007812 144 302 c 5
 144 202 l 7
 144 83.6591796875 214.725585938 -12 338 -12 c 7
 493.045898438 -12 582 102.696289062 582 252 c 7
 582 400.30859375 493.045898438 515 338 515 c 7
318 401 m 7
 406.26953125 401 453 334.446289062 453 252 c 7
 453 169.549804688 406.26953125 102 318 102 c 7
 229.73046875 102 183 169.549804688 183 252 c 7
 183 334.446289062 229.73046875 401 318 401 c 7
EndSplineSet
EndChar

StartChar: d
Encoding: 100 100 37
Width: 604
VWidth: 0
Flags: HW
LayerCount: 2
Fore
SplineSet
420 143 m 5
 420 202 l 5
 421 202 l 5
 421 302 l 5
 420 302 l 5
 420 688 l 5
 549 688 l 5
 549 0 l 5
 424 0 l 5
 423 143 l 5
 420 143 l 5
266 515 m 7
 388.45703125 515 460 420.333007812 460 302 c 5
 460 202 l 7
 460 83.6591796875 389.274414062 -12 266 -12 c 7
 110.954101562 -12 22 102.696289062 22 252 c 7
 22 400.30859375 110.954101562 515 266 515 c 7
286 401 m 7
 197.73046875 401 151 334.446289062 151 252 c 7
 151 169.549804688 197.73046875 102 286 102 c 7
 374.26953125 102 421 169.549804688 421 252 c 7
 421 334.446289062 374.26953125 401 286 401 c 7
EndSplineSet
EndChar

StartChar: p
Encoding: 112 112 38
Width: 604
VWidth: 0
Flags: HW
LayerCount: 2
Fore
SplineSet
184 360 m 5
 184 301 l 5
 183 301 l 5
 183 201 l 5
 184 201 l 5
 184 -155 l 5
 55 -155 l 5
 55 503 l 5
 180 503 l 5
 181 360 l 5
 184 360 l 5
338 -12 m 7
 215.54296875 -12 144 82.6669921875 144 201 c 5
 144 301 l 7
 144 419.340820312 214.725585938 515 338 515 c 7
 493.045898438 515 582 400.303710938 582 251 c 7
 582 102.69140625 493.045898438 -12 338 -12 c 7
318 102 m 7
 406.26953125 102 453 168.553710938 453 251 c 7
 453 333.450195312 406.26953125 401 318 401 c 7
 229.73046875 401 183 333.450195312 183 251 c 7
 183 168.553710938 229.73046875 102 318 102 c 7
EndSplineSet
EndChar

StartChar: q
Encoding: 113 113 39
Width: 604
VWidth: 0
Flags: HW
LayerCount: 2
Fore
SplineSet
420 360 m 1
 420 301 l 1
 421 301 l 1
 421 201 l 1
 420 201 l 1
 420 -155 l 1
 549 -155 l 1
 549 503 l 1
 424 503 l 1
 423 360 l 1
 420 360 l 1
266 -12 m 3
 388.45703125 -12 460 82.6669921875 460 201 c 1
 460 301 l 3
 460 419.340820312 389.274414062 515 266 515 c 3
 110.954101562 515 22 400.303710938 22 251 c 3
 22 102.69140625 110.954101562 -12 266 -12 c 3
286 102 m 3
 197.73046875 102 151 168.553710938 151 251 c 3
 151 333.450195312 197.73046875 401 286 401 c 3
 374.26953125 401 421 333.450195312 421 251 c 3
 421 168.553710938 374.26953125 102 286 102 c 3
EndSplineSet
EndChar

StartChar: e
Encoding: 101 101 40
Width: 549
VWidth: 0
Flags: HW
LayerCount: 2
Fore
SplineSet
92 297 m 1
 456 297 l 1
 456 204 l 1
 92 204 l 1
 92 297 l 1
492 27 m 1
 456.385026738 2 383.176470588 -15 307 -15 c 3
 125.546712803 -15 22 91 22 252 c 3
 22 402 116.545454545 518 282 518 c 3
 435.729508197 518 524 409 524 273 c 3
 524 249 523.25 227 521 204 c 1
 390 204 l 1
 393 226 395 249 395 274 c 3
 395 348 358 406 280 406 c 3
 196.586466165 406 151 345 151 253 c 3
 151 164 198.850469892 99 319 99 c 3
 371.394285714 99 434.657303371 113.711538462 492 150 c 1
 492 27 l 1
EndSplineSet
EndChar

StartChar: v
Encoding: 118 118 41
Width: 501
VWidth: 0
Flags: HW
LayerCount: 2
Fore
SplineSet
335 0 m 1
 215 0 l 1
 357 503 l 5
 486 503 l 1
 335 0 l 1
166 0 m 1
 15 503 l 1
 151 503 l 5
 294 0 l 1
 166 0 l 1
EndSplineSet
EndChar

StartChar: m
Encoding: 109 109 42
Width: 819
VWidth: 0
Flags: HWO
LayerCount: 2
Fore
SplineSet
438 321 m 1
 438 435.113591974 499.825393021 510 613 510 c 3
 712.20834113 510 770 443.192618534 770 342 c 2
 770 0 l 1
 641 0 l 1
 641 302 l 2
 641 356.786153372 615.930574264 393 564 393 c 3
 508.959326675 393 477 357.513588959 477 292 c 1
 438 321 l 1
55 0 m 1
 55 503 l 1
 180 503 l 1
 181 360 l 1
 184 360 l 1
 184 0 l 1
 55 0 l 1
167 357 m 1
 167 449.377669694 221.053057899 510 320 510 c 3
 419.20834113 510 477 443.192618534 477 342 c 2
 477 0 l 1
 348 0 l 1
 348 302 l 2
 348 356.786153372 322.930574264 393 271 393 c 3
 215.959326675 393 184 357.513588959 184 292 c 1
 167 357 l 1
EndSplineSet
EndChar
